PathFileType	4	(X/Y/Z)	 2.6Hz3min.trc
DataRate	CameraRate	NumFrames	NumMarkers	Units	OrigDataRate	OrigDataStartFrame	OrigNumFrames
200	200	10	35	m	200	751	1000
Frame#	Time	C7			LSH			RSH			MAN			RASI			LASI			HIPR			HIPL			RPSI			LPSI			COX			RTHI1			RTHI2			RTHI3			RTHI4			RSHA1			RSHA2			RSHA3			RSHA4			RHEEL			RMET5			RMET1			RTOE			LTHI1			LTHI2			LTHI3			LTHI4			LSHA1			LSHA2			LSHA3			LSHA4			LHEEL			LMET5			LMET1			LTOE			
		X1	Y1	Z1	X2	Y2	Z2	X3	Y3	Z3	X4	Y4	Z4	X5	Y5	Z5	X6	Y6	Z6	X7	Y7	Z7	X8	Y8	Z8	X9	Y9	Z9	X10	Y10	Z10	X11	Y11	Z11	X12	Y12	Z12	X13	Y13	Z13	X14	Y14	Z14	X15	Y15	Z15	X16	Y16	Z16	X17	Y17	Z17	X18	Y18	Z18	X19	Y19	Z19	X20	Y20	Z20	X21	Y21	Z21	X22	Y22	Z22	X23	Y23	Z23	X24	Y24	Z24	X25	Y25	Z25	X26	Y26	Z26	X27	Y27	Z27	X28	Y28	Z28	X29	Y29	Z29	X30	Y30	Z30	X31	Y31	Z31	X32	Y32	Z32	X33	Y33	Z33	X34	Y34	Z34	X35	Y35	Z35	
751	3.7550	-0.230748	1.350477	-0.512538	-0.187120	1.320669	-0.681738	-0.172050	1.311559	-0.336451	-0.118907	1.289363	-0.515368	-0.112564	0.891603	-0.431345	-0.102346	0.905434	-0.619037	-0.173782	0.945332	-0.386840	-0.149297	0.957800	-0.658160	-0.260871	0.939118	-0.467077	-0.254250	0.942858	-0.583568	-0.260799	0.950432	-0.525385	-0.227830	0.683436	-0.382147	-0.206793	0.627508	-0.374725	-0.150327	0.647752	-0.350192	-0.163479	0.707654	-0.353949	-0.260757	0.288742	-0.350638	-0.279277	0.252593	-0.355380	-0.229959	0.225949	-0.344352	-0.206258	0.261186	-0.343850	-0.359240	0.093373	-0.390338	-0.215610	0.030333	-0.319305	-0.180148	0.031381	-0.398230	-0.158700	0.027451	-0.385048	-0.183586	0.704743	-0.710313	-0.171630	0.644354	-0.713648	-0.108049	0.650054	-0.700403	-0.112591	0.709482	-0.695951	-0.274516	0.275609	-0.741138	-0.288700	0.233529	-0.739364	-0.238685	0.215002	-0.729662	-0.218310	0.249959	-0.730494	-0.375793	0.103989	-0.696806	-0.231487	0.029666	-0.767545	-0.200871	0.034641	-0.693634	-0.174304	0.026477	-0.705139	
752	3.7600	-0.230975	1.354724	-0.512569	-0.187210	1.325026	-0.681709	-0.172216	1.316048	-0.336619	-0.119028	1.293853	-0.515417	-0.111927	0.895820	-0.431616	-0.101683	0.909637	-0.619096	-0.173000	0.949778	-0.387100	-0.148438	0.962167	-0.658267	-0.260060	0.943508	-0.467415	-0.253374	0.947268	-0.583802	-0.260021	0.954743	-0.525718	-0.227770	0.687964	-0.381936	-0.207122	0.631938	-0.374316	-0.150358	0.651922	-0.350217	-0.163189	0.711896	-0.354078	-0.261349	0.291723	-0.350604	-0.279585	0.255436	-0.355293	-0.230071	0.229210	-0.344004	-0.206683	0.264645	-0.343470	-0.357957	0.095997	-0.390117	-0.215218	0.030645	-0.319473	-0.180062	0.031500	-0.398045	-0.158664	0.027454	-0.384988	-0.183592	0.709159	-0.710922	-0.171886	0.648740	-0.714396	-0.108296	0.654128	-0.701087	-0.112591	0.713564	-0.696487	-0.274730	0.278847	-0.742064	-0.288563	0.236579	-0.740264	-0.238352	0.218472	-0.730770	-0.218283	0.253661	-0.731617	-0.374322	0.106945	-0.697562	-0.231109	0.029939	-0.767580	-0.200620	0.034908	-0.693969	-0.174237	0.026540	-0.705208	
753	3.7650	-0.231203	1.359151	-0.512586	-0.187289	1.329597	-0.681658	-0.172359	1.320738	-0.336809	-0.119157	1.298524	-0.515468	-0.111306	0.900267	-0.431915	-0.101036	0.914026	-0.619165	-0.172166	0.954481	-0.387523	-0.147535	0.966794	-0.658333	-0.259217	0.948145	-0.467799	-0.252423	0.951924	-0.584116	-0.259205	0.959281	-0.526096	-0.227710	0.692727	-0.381601	-0.207452	0.636618	-0.373797	-0.150353	0.656309	-0.350203	-0.162853	0.716364	-0.354199	-0.261932	0.294872	-0.350506	-0.279862	0.258448	-0.355160	-0.230151	0.232663	-0.343578	-0.207103	0.268298	-0.343036	-0.356567	0.098750	-0.389919	-0.214799	0.030984	-0.319633	-0.179969	0.031642	-0.397840	-0.158629	0.027460	-0.384910	-0.183590	0.713744	-0.711567	-0.172129	0.653298	-0.715185	-0.108535	0.658380	-0.701782	-0.112587	0.717823	-0.697031	-0.274939	0.282208	-0.743013	-0.288383	0.239765	-0.741204	-0.237976	0.222104	-0.731957	-0.218225	0.257536	-0.732810	-0.372720	0.110016	-0.698362	-0.230685	0.030242	-0.767626	-0.200325	0.035215	-0.694333	-0.174146	0.026614	-0.705292	
754	3.7700	-0.231463	1.363747	-0.512590	-0.187356	1.334341	-0.681588	-0.172470	1.325576	-0.337009	-0.119292	1.303339	-0.515526	-0.110712	0.904891	-0.432245	-0.100415	0.918562	-0.619246	-0.171347	0.959685	-0.387907	-0.146601	0.971631	-0.658353	-0.258369	0.952983	-0.468215	-0.251467	0.956733	-0.584432	-0.258436	0.964061	-0.526510	-0.227655	0.697680	-0.381150	-0.207782	0.641485	-0.373183	-0.150325	0.660872	-0.350155	-0.162492	0.721017	-0.354305	-0.262507	0.298148	-0.350343	-0.280095	0.261594	-0.354973	-0.230191	0.236244	-0.343087	-0.207504	0.272102	-0.342560	-0.355082	0.101611	-0.389745	-0.214358	0.031345	-0.319783	-0.179865	0.031809	-0.397607	-0.158589	0.027474	-0.384811	-0.183575	0.718468	-0.712243	-0.172353	0.657997	-0.716006	-0.108765	0.662774	-0.702478	-0.112580	0.722221	-0.697574	-0.275137	0.285663	-0.743957	-0.288163	0.243053	-0.742170	-0.237552	0.225873	-0.733206	-0.218145	0.261530	-0.734051	-0.370989	0.113169	-0.699203	-0.230212	0.030578	-0.767676	-0.199986	0.035558	-0.694722	-0.174028	0.026695	-0.705385	
755	3.7750	-0.231752	1.368464	-0.512586	-0.187419	1.339213	-0.681508	-0.172541	1.330516	-0.337208	-0.119433	1.308258	-0.515594	-0.110140	0.909635	-0.432612	-0.099825	0.923209	-0.619347	-0.170443	0.964749	-0.388470	-0.145665	0.976618	-0.658332	-0.257467	0.957935	-0.468689	-0.250501	0.961670	-0.584759	-0.257506	0.968928	-0.526896	-0.227615	0.702792	-0.380602	-0.208121	0.646506	-0.372495	-0.150288	0.665570	-0.350084	-0.162111	0.725812	-0.354395	-0.263068	0.301535	-0.350111	-0.280281	0.264842	-0.354706	-0.230207	0.239909	-0.342523	-0.207891	0.276025	-0.342027	-0.353504	0.104549	-0.389594	-0.213892	0.031731	-0.319929	-0.179747	0.032004	-0.397344	-0.158540	0.027494	-0.384687	-0.183546	0.723297	-0.712946	-0.172561	0.662800	-0.716845	-0.108985	0.667276	-0.703164	-0.112571	0.726722	-0.698106	-0.275321	0.289178	-0.744882	-0.287905	0.246396	-0.743155	-0.237085	0.229738	-0.734498	-0.218037	0.265611	-0.735324	-0.369136	0.116379	-0.700076	-0.229688	0.030951	-0.767725	-0.199602	0.035932	-0.695134	-0.173877	0.026786	-0.705486	
756	3.7800	-0.232062	1.373263	-0.512580	-0.187479	1.344169	-0.681420	-0.172564	1.335504	-0.337404	-0.119580	1.313234	-0.515677	-0.109587	0.914451	-0.433022	-0.099268	0.927929	-0.619471	-0.169613	0.970121	-0.389083	-0.144746	0.981694	-0.658294	-0.256583	0.962993	-0.469180	-0.249541	0.966670	-0.585087	-0.256668	0.973925	-0.527298	-0.227598	0.708026	-0.379967	-0.208475	0.651641	-0.371735	-0.150254	0.670369	-0.349987	-0.161734	0.730716	-0.354495	-0.263614	0.304996	-0.349814	-0.280414	0.268159	-0.354367	-0.230186	0.243631	-0.341892	-0.208267	0.280036	-0.341449	-0.351836	0.107541	-0.389453	-0.213409	0.032130	-0.320070	-0.179611	0.032228	-0.397046	-0.158479	0.027518	-0.384534	-0.183512	0.728199	-0.713658	-0.172759	0.667677	-0.717694	-0.109205	0.671856	-0.703838	-0.112561	0.731295	-0.698628	-0.275493	0.292706	-0.745776	-0.287596	0.249766	-0.744144	-0.236564	0.233658	-0.735812	-0.217899	0.269751	-0.736599	-0.367164	0.119632	-0.700979	-0.229116	0.031358	-0.767769	-0.199180	0.036326	-0.695562	-0.173699	0.026879	-0.705597	
757	3.7850	-0.232317	1.378043	-0.512588	-0.187536	1.349164	-0.681329	-0.172571	1.340506	-0.337632	-0.119727	1.318228	-0.515779	-0.109051	0.919295	-0.433471	-0.098747	0.932679	-0.619618	-0.000000	0.000000	-0.000000	-0.143869	0.986793	-0.658259	-0.255707	0.968096	-0.469687	-0.248578	0.971753	-0.585424	-0.255718	0.978915	-0.527718	-0.227615	0.713341	-0.379271	-0.208861	0.656852	-0.370933	-0.150251	0.675237	-0.349879	-0.161360	0.735664	-0.354593	-0.264141	0.308504	-0.349444	-0.280502	0.271496	-0.353971	-0.230135	0.247384	-0.341203	-0.208627	0.284082	-0.340847	-0.350079	0.110549	-0.389303	-0.212911	0.032540	-0.320202	-0.179451	0.032483	-0.396711	-0.158401	0.027551	-0.384344	-0.183475	0.733148	-0.714377	-0.172957	0.672596	-0.718547	-0.109433	0.676477	-0.704500	-0.112553	0.735909	-0.699143	-0.275644	0.296214	-0.746639	-0.287237	0.253133	-0.745133	-0.235989	0.237597	-0.737126	-0.217729	0.273918	-0.737868	-0.365085	0.122895	-0.701896	-0.228489	0.031804	-0.767813	-0.198707	0.036753	-0.696005	-0.173486	0.026978	-0.705720	
758	3.7900	-0.232583	1.382826	-0.512608	-0.187593	1.354163	-0.681241	-0.172564	1.345473	-0.337896	-0.119875	1.323203	-0.515903	-0.108539	0.924108	-0.433954	-0.098260	0.937422	-0.619790	-0.000000	0.000000	-0.000000	-0.143053	0.991856	-0.658244	-0.254838	0.973202	-0.470213	-0.247673	0.976819	-0.585716	-0.254891	0.983938	-0.528136	-0.227646	0.718699	-0.378559	-0.209274	0.662091	-0.370107	-0.150294	0.680138	-0.349767	-0.161003	0.740627	-0.354689	-0.264658	0.312008	-0.349026	-0.280540	0.274819	-0.353526	-0.230059	0.251111	-0.340473	-0.208963	0.288123	-0.340175	-0.348250	0.113568	-0.389139	-0.212392	0.032966	-0.320330	-0.179268	0.032776	-0.396334	-0.158301	0.027595	-0.384112	-0.183437	0.738113	-0.715094	-0.173166	0.677532	-0.719391	-0.109676	0.681101	-0.705148	-0.112555	0.740524	-0.699645	-0.275764	0.299683	-0.747469	-0.286831	0.256474	-0.746114	-0.235365	0.241527	-0.738422	-0.217543	0.278063	-0.739087	-0.362911	0.126152	-0.702831	-0.227807	0.032296	-0.767860	-0.198188	0.037210	-0.696459	-0.173245	0.027079	-0.705852	
759	3.7950	-0.232791	1.387522	-0.512650	-0.187652	1.359123	-0.681162	-0.172564	1.350376	-0.338222	-0.120028	1.328123	-0.516050	-0.108045	0.928850	-0.434467	-0.097807	0.942120	-0.619989	-0.000000	0.000000	-0.000000	-0.142309	0.996838	-0.658260	-0.253941	0.978238	-0.470774	-0.246836	0.981827	-0.585974	-0.253974	0.988904	-0.528566	-0.227695	0.724058	-0.377857	-0.209722	0.667347	-0.369283	-0.150394	0.685034	-0.349653	-0.160662	0.745564	-0.354787	-0.265163	0.315476	-0.348579	-0.280555	0.278082	-0.353059	-0.229958	0.254806	-0.339716	-0.209289	0.292130	-0.339446	-0.346345	0.116570	-0.388953	-0.211846	0.033417	-0.320455	-0.179053	0.033109	-0.395922	-0.158177	0.027647	-0.383838	-0.183407	0.743063	-0.715793	-0.173398	0.682459	-0.720223	-0.109941	0.685699	-0.705788	-0.112568	0.745110	-0.700132	-0.275850	0.303088	-0.748275	-0.286378	0.259750	-0.747080	-0.234700	0.245416	-0.739687	-0.217327	0.282176	-0.740259	-0.360657	0.129388	-0.703778	-0.227067	0.032837	-0.767913	-0.197628	0.037688	-0.696921	-0.172976	0.027182	-0.706008	
760	3.8000	-0.232941	1.392094	-0.512721	-0.187707	1.364007	-0.681094	-0.172572	1.355174	-0.338613	-0.120189	1.332955	-0.516220	-0.107579	0.933485	-0.435005	-0.097384	0.946740	-0.620215	-0.000000	0.000000	-0.000000	-0.141632	1.001707	-0.658315	-0.253081	0.983203	-0.471327	-0.246074	0.986710	-0.586207	-0.253282	0.993760	-0.529077	-0.227757	0.729386	-0.377190	-0.210202	0.672563	-0.368488	-0.150560	0.689892	-0.349541	-0.160349	0.750435	-0.354891	-0.265665	0.318826	-0.348128	-0.280563	0.281226	-0.352626	-0.229831	0.258448	-0.338958	-0.209606	0.296061	-0.338690	-0.344376	0.119535	-0.388727	-0.211283	0.033893	-0.320569	-0.178798	0.033483	-0.395484	-0.158028	0.027712	-0.383522	-0.183393	0.747972	-0.716462	-0.173658	0.687343	-0.721040	-0.110235	0.690239	-0.706422	-0.112596	0.749636	-0.700607	-0.275904	0.306392	-0.749065	-0.285876	0.262950	-0.748030	-0.233996	0.249244	-0.740911	-0.217090	0.286223	-0.741377	-0.358342	0.132591	-0.704737	-0.226264	0.033435	-0.767983	-0.197020	0.038192	-0.697386	-0.172676	0.027286	-0.706186	
